<svg xmlns="http://www.w3.org/2000/svg" width="276mm" height="54mm" viewBox="0 0 276 54">
<g>
<g style="fill:#ffc000;fill-opacity:1" transform="translate(-10.583334,-10.583333)">
<g style="fill:#ffc000;fill-opacity:1"/>
</g>
<path d="m 158.74999,42.333334 h -31.75 V 15.875 h 10.58334 V 31.75 h 21.16666 V 15.875 h 10.58334 V 31.75 c 0,10.583334 -10.58334,10.583334 -10.58334,10.583334 z m 10.58334,-31.75 H 126.99999 V 0 h 31.75 c 10.58334,0 10.58334,10.583334 10.58334,10.583334 z m 63.5,5.291666 h 10.58333 V 31.75 h 21.16667 V 21.166667 h -15.875 V 15.875 h 26.45833 v 26.458334 h -31.75 C 232.83333,42.333334 232.83333,31.75 232.83333,31.75 Z m 0,-5.291666 C 232.83333,0 243.41666,0 243.41666,0 h 31.75 v 10.583334 z m -37.04167,10.583333 c 0,-5.291667 5.29167,-5.291667 5.29167,-5.291667 5.29166,10e-7 5.29166,5.291667 5.29166,5.291667 0,5.291667 -5.29166,5.291667 -5.29166,5.291667 -5.29167,-1e-6 -5.29167,-5.291667 -5.29167,-5.291667 z M 222.24999,31.75 V 15.875 H 211.66666 V 31.75 H 190.49999 V 15.875 H 179.91666 V 31.75 c 0,10.583334 10.58333,10.583334 10.58333,10.583334 h 21.16667 c 10.58333,0 10.58333,-10.583334 10.58333,-10.583334 z m 0,-21.166666 H 179.91666 C 179.91666,0 190.49999,0 190.49999,0 h 21.16667 c 10.58333,0 10.58333,10.583334 10.58333,10.583334 z M 105.83333,0 h 10.58333 v 10.583334 h -10.58333 z m 0,15.875 h 10.58333 v 26.458334 h -10.58333 z m -52.916664,0 H 63.499999 V 31.75 H 95.249993 V 42.333334 H 63.499999 c 0,0 -10.583334,0.127641 -10.583333,-10.583334 z M 63.499999,0 H 95.249993 V 10.583334 H 52.916666 C 52.916666,0 63.499999,0 63.499999,0 Z M 10.583333,26.458334 H 31.749999 V 31.75 H -6.6666667e-7 V 42.333334 H 31.749999 c 0,0 10.583334,0 10.583334,-10.583334 v -5.291666 c 0,0 0,-10.583334 -10.583334,-10.583334 H -6.6666667e-7 C -6.6666667e-7,26.458334 10.583333,26.458334 10.583333,26.458334 Z M 10.583333,0 h 31.75 V 10.583334 H -6.6666667e-7 C -3.6666667e-6,0 10.583333,0 10.583333,0 Z" style="fill:#ffc000;fill-opacity:1;stroke:none;stroke-width:0;stroke-linecap:round;stroke-linejoin:round;stroke-miterlimit:4;stroke-dasharray:none;stroke-opacity:1;paint-order:stroke markers fill"/>
<path d="M 100.54166,50.270834 H 89.958326 m 158.750004,-10e-7 h 10.58333 V 47.625 m -7.93749,0 -2.64584,2.645833 2.64584,2.645834 m -23.8125,-5.291666 -10.58335,-10e-7 v 2.645834 h 10.58334 v 2.645833 H 216.95832 M 185.20833,50.270834 H 174.62499 M 185.20833,47.625 h -10.58334 v 5.291667 h 10.58334 M 137.58332,47.625 v 5.291667 m -5.29166,0 V 47.625 h 10.58333 v 5.291667 M 100.54166,50.270834 H 89.958326 m 0,2.645833 V 50.270834 47.625 l 10.583334,10e-7 v 2.645833 2.645834 M 58.208333,47.625 H 47.624995 v 5.291667 h 10.583338 v -2.645833 h -7.937504" style="fill:none;fill-opacity:1;stroke:#ffc000;stroke-width:1;stroke-linecap:round;stroke-linejoin:round;stroke-miterlimit:4;stroke-dasharray:none;stroke-opacity:1;paint-order:stroke markers fill"/>
</g>
</svg>
