<?xml version="1.0" encoding="UTF-8" standalone="no"?>
<svg
   xmlns:dc="http://purl.org/dc/elements/1.1/"
   xmlns:cc="http://creativecommons.org/ns#"
   xmlns:rdf="http://www.w3.org/1999/02/22-rdf-syntax-ns#"
   xmlns:svg="http://www.w3.org/2000/svg"
   xmlns="http://www.w3.org/2000/svg"
   xmlns:sodipodi="http://sodipodi.sourceforge.net/DTD/sodipodi-0.dtd"
   xmlns:inkscape="http://www.inkscape.org/namespaces/inkscape"
   inkscape:export-ydpi="245.76003"
   inkscape:export-xdpi="245.76003"
   inkscape:export-filename="/Users/mine/scidog-games-icon.png"
   width="53cm"
   height="53cm"
   viewBox="0 0 53 53"
   version="1.1"
   id="svg1934"
   inkscape:version="1.0beta2 (2b71d25, 2019-12-03)"
   sodipodi:docname="scidog-games-icon.svg">
  <defs
     id="defs1928" />
  <sodipodi:namedview
     id="base"
     pagecolor="#a0a0a0"
     bordercolor="#666666"
     borderopacity="1.0"
     inkscape:pageopacity="0"
     inkscape:pageshadow="2"
     inkscape:zoom="0.62003367"
     inkscape:cx="182.24817"
     inkscape:cy="395.23758"
     inkscape:document-units="mm"
     inkscape:current-layer="layer1"
     inkscape:document-rotation="0"
     showgrid="true"
     inkscape:window-width="1440"
     inkscape:window-height="855"
     inkscape:window-x="0"
     inkscape:window-y="23"
     inkscape:window-maximized="0"
     showguides="false"
     inkscape:pagecheckerboard="true">
    <inkscape:grid
       empspacing="20"
       type="xygrid"
       id="grid1936" />
  </sodipodi:namedview>
  <metadata
     id="metadata1931">
    <rdf:RDF>
      <cc:Work
         rdf:about="">
        <dc:format>image/svg+xml</dc:format>
        <dc:type
           rdf:resource="http://purl.org/dc/dcmitype/StillImage" />
        <dc:title></dc:title>
      </cc:Work>
    </rdf:RDF>
  </metadata>
  <g
     inkscape:label="Layer 1"
     inkscape:groupmode="layer"
     id="layer1">
    <g
       transform="translate(-5.291667,-5.2916663)"
       inkscape:export-ydpi="96"
       inkscape:export-xdpi="96"
       style="fill:#ffc000;fill-opacity:1;paint-order:stroke markers fill;stroke:none"
       id="g58">
      <g
         style="fill:#ffc000;fill-opacity:1;paint-order:stroke markers fill;stroke:none"
         id="g88">
        <path
           d="m 21.166667,37.041667 h 21.166666 v 5.291666 h -31.75 v 10.583334 h 31.75 c 0,0 10.583334,0 10.583334,-10.583334 v -5.291666 c 0,0 0,-10.583334 -10.583334,-10.583334 h -31.75 c 0,10.583334 10.583334,10.583334 10.583334,10.583334 z m 0,-26.458334 h 31.75 V 21.166667 H 10.583333 c -3e-6,-10.583334 10.583334,-10.583334 10.583334,-10.583334 z"
           style="fill:#ffc000;fill-opacity:1;stroke:none;stroke-width:0;stroke-linecap:round;stroke-linejoin:round;stroke-miterlimit:4;stroke-dasharray:none;stroke-opacity:1;paint-order:stroke markers fill"
           id="path1940" />
      </g>
    </g>
    <path
       inkscape:connector-curvature="0"
       id="path844"
       d="M 47.624999,15.875 V 5.2916666 c 0,0 -21.166666,0 -31.749999,0 C 5.2916666,5.2916666 5.2916666,15.875 5.2916666,15.875 c 0,0 0,-5.291667 0,5.291666 C 5.2916666,31.75 15.875,31.75 15.875,31.75 h 21.166666 v 5.291666 H 5.2916666 v 10.583333 c 0,0 21.1666664,0 31.7499994,0 10.583333,0 10.583333,-10.583333 10.583333,-10.583333 0,0 0,5.291667 0,-5.291666 0,-10.583334 -10.583333,-10.583334 -10.583333,-10.583334 h 15.875 c 0,0 0,0 0,15.875 0,15.875 -15.875,15.875 -15.875,15.875 0,0 -26.458333,0 -31.7499994,0 C 0,52.916666 0,47.624999 0,47.624999 0,47.624999 0,31.75 0,15.875 0,0 15.875,0 15.875,0 c 0,0 26.458333,0 31.749999,0 5.291667,0 5.291667,5.2916666 5.291667,5.2916666 V 21.166666 H 5.2916666 V 15.875 Z"
       style="fill:#000000;stroke:none;stroke-width:0.26458300000000001px;stroke-linecap:butt;stroke-linejoin:miter;stroke-opacity:1;fill-opacity:1" />
  </g>
</svg>
