<?xml version="1.0" encoding="UTF-8" standalone="no"?>
<svg

xmlns="http://www.w3.org/2000/svg"
xmlns:sodipodi="http://sodipodi.sourceforge.net/DTD/sodipodi-0.dtd"
xmlns:inkscape="http://www.inkscape.org/namespaces/inkscape"
sodipodi:docname="swapon-logo.svg"

id="svg8"

viewBox="0 0 276 122"
height="122mm"
width="276m"

inkscape:export-ydpi="89.950172">



<g
id="layer1"
inkscape:groupmode="layer"
inkscape:label="Layer 1">
<path
style="fill:#c0ff00;fill-opacity:1;fill-rule:nonzero;stroke:#c0ff00;stroke-width:6.5;stroke-linecap:round;stroke-linejoin:round;stroke-miterlimit:4;stroke-dasharray:none;stroke-opacity:1;paint-order:stroke markers fill"
d="m 52.916667,95.25 201.083323,1e-5 v 5.29166 H 52.916659 Z"
id="path3986"
inkscape:connector-curvature="0"

inkscape:export-ydpi="96"
sodipodi:nodetypes="ccccc" />
<path
style="fill:none;fill-opacity:1;fill-rule:nonzero;stroke:#ffffff;stroke-width:6.5;stroke-linecap:round;stroke-linejoin:round;stroke-miterlimit:4;stroke-dasharray:none;stroke-opacity:1;paint-order:stroke markers fill"
d="m 153.45833,68.791663 h 15.875 v -15.875 h -15.875 l 1e-5,47.625007 h 5.29167 l -15.875,15.875 -1e-5,-74.083337 h 26.45833 c 10.58334,0 10.58334,10.58333 10.58334,10.58333 v 15.875 c 0,10.58333 -10.58334,10.58333 -10.58334,10.58333 l -15.875,1e-5"
id="path3992"
inkscape:connector-curvature="0"
sodipodi:nodetypes="ccccccccscscc" />
<path
d="m 201.08333,84.666663 h -5.29166 c -10.58334,0 -10.58334,-10.58333 -10.58334,-10.58333 v -15.875 c 0,-10.58333 10.58334,-10.58333 10.58334,-10.58333 h 15.875 c 10.58333,0 10.58333,10.58333 10.58333,10.58333 v 15.875 c 0,10.58333 -10.58333,10.58333 -10.58333,10.58333 l -10.58334,1e-5 v -10.58334 h 10.58334 v -15.875 h -15.875 v 15.875 h 5.29166 m 26.45834,-42.33334 h 15.875 C 254,31.749993 254,42.333333 254,42.333333 v 31.74999 h 5.29167 l 10e-6,-52.916655 L 254,21.166666 269.875,5.2916663 V 84.666663 H 254 c -10.58333,0 -10.58333,-10.58334 -10.58333,-10.58334 V 42.333333 H 238.125 v 42.33333 h -10.58333 z"
style="fill:none;fill-opacity:1;fill-rule:nonzero;stroke:#ffffff;stroke-width:6.5;stroke-linecap:round;stroke-linejoin:round;stroke-miterlimit:4;stroke-dasharray:none;stroke-opacity:1;paint-order:stroke markers fill"
id="path3994" />
<path
d="M 100.54166,74.083343 V 47.624997 c 0,-10.58333 10.58333,-10.58333 10.58333,-10.58333 h 15.875 c 10.58333,0 10.58333,10.58333 10.58333,10.58333 l 1e-5,26.458346 h -10.58334 v -5.29167 l -10.58333,-1e-5 v -5.29166 l 10.58333,1e-5 V 47.624997 h -15.875 v 26.458346 z m -31.749997,-37.04168 6e-6,15.875 h 10.583333 l -6e-6,-15.875 z m -15.874994,-5.29167 h 10.583333 v 26.45833 H 84.666669 V 31.749993 H 95.25 c 0,0 0,15.875 0,26.45833 0,10.58334 -10.583331,10.58334 -10.583331,10.58334 0,0 -10.583333,0 -21.166667,0 -10.583333,0 -10.583333,-10.58334 -10.583333,-10.58334 z M 5.29167,42.333333 c 0,-10.58334 10.583333,-10.58334 10.583333,-10.58334 h 31.75 v 10.58334 h -31.75 v 10.58333 c 0,0 10.583333,0 21.166666,0 10.583334,0 10.583334,10.58333 10.583334,10.58333 0,0 0,0 0,10.58333 0,10.58334 -10.583334,10.58334 -10.583334,10.58334 H 5.29167 v -10.58334 h 31.749999 v -10.58333 c 0,0 -10.583333,0 -21.166666,0 -10.583333,0 -10.583333,-10.58333 -10.583333,-10.58333 z"
style="fill:none;fill-opacity:1;stroke:#ffffff;stroke-width:6.5;stroke-linecap:round;stroke-linejoin:round;stroke-miterlimit:4;stroke-dasharray:none;stroke-opacity:1;paint-order:stroke markers fill"
id="path850" />
<path
sodipodi:nodetypes="ccccccccscscc"
inkscape:connector-curvature="0"
id="path3992-6"
d="m 153.45833,68.791663 h 15.875 v -15.875 h -15.875 l 1e-5,47.624997 h 5.29167 l -15.875,15.87501 -1e-5,-74.083337 h 26.45833 c 10.58334,0 10.58334,10.58333 10.58334,10.58333 v 15.875 c 0,10.58333 -10.58334,10.58333 -10.58334,10.58333 l -15.875,1e-5"
style="fill:#7fc07f;fill-opacity:1;fill-rule:nonzero;stroke:none;stroke-width:6.49999;stroke-linecap:round;stroke-linejoin:round;stroke-miterlimit:4;stroke-dasharray:none;stroke-opacity:1;paint-order:stroke markers fill" />
<path
inkscape:connector-curvature="0"
id="path3994-5"
style="fill:#00c0ff;fill-opacity:1;fill-rule:nonzero;stroke:none;stroke-width:6.49999;stroke-linecap:round;stroke-linejoin:round;stroke-miterlimit:4;stroke-dasharray:none;stroke-opacity:1;paint-order:stroke markers fill"
d="m 201.08333,84.666663 h -5.29166 c -10.58334,0 -10.58334,-10.58333 -10.58334,-10.58333 v -15.875 c 0,-10.58334 10.58334,-10.58334 10.58334,-10.58334 h 15.875 c 10.58333,0 10.58333,10.58334 10.58333,10.58334 v 15.875 c 0,10.58333 -10.58333,10.58333 -10.58333,10.58333 l -10.58334,1e-5 v -10.58334 h 10.58334 v -15.875 h -15.875 v 15.875 h 5.29166 m 26.45834,-42.33335 h 15.875 C 254,31.749983 254,42.333333 254,42.333333 v 31.74999 h 5.29167 l 10e-6,-52.91666 H 254 L 269.87501,5.2916623 V 84.666663 H 254 c -10.58333,0 -10.58333,-10.58334 -10.58333,-10.58334 V 42.333333 H 238.125 v 42.33333 h -10.58333 z" />
<path
inkscape:connector-curvature="0"
id="path850-5"
style="fill:#ffc000;fill-opacity:1;stroke:none;stroke-width:6.49999;stroke-linecap:round;stroke-linejoin:round;stroke-miterlimit:4;stroke-dasharray:none;stroke-opacity:1;paint-order:stroke markers fill"
d="m 100.54167,74.083343 v -26.45835 c 0,-10.58333 10.58333,-10.58333 10.58333,-10.58333 h 15.87499 c 10.58333,0 10.58333,10.58333 10.58333,10.58333 l 1e-5,26.45835 h -10.58334 v -5.29167 l -10.58332,-1e-5 v -5.29166 l 10.58332,1e-5 V 47.624993 H 111.125 v 26.45835 z m -31.750008,-37.04168 5e-6,15.875 h 10.583334 l -6e-6,-15.875 z m -15.874995,-5.29168 h 10.583334 v 26.45834 h 21.166666 v -26.45834 h 10.583334 c 0,0 0,15.87501 0,26.45834 0,10.58334 -10.583334,10.58334 -10.583334,10.58334 0,0 -10.58333,0 -21.166666,0 -10.583334,0 -10.583334,-10.58334 -10.583334,-10.58334 z M 5.2916692,42.333333 c 0,-10.58335 10.5833328,-10.58335 10.5833328,-10.58335 h 31.750001 v 10.58335 H 15.875002 v 10.58333 c 0,0 10.583333,0 21.166665,0 10.583336,0 10.583336,10.58333 10.583336,10.58333 0,0 0,0 0,10.58333 0,10.58334 -10.583336,10.58334 -10.583336,10.58334 H 5.2916692 V 74.083323 H 37.041667 v -10.58333 c 0,0 -10.583332,0 -21.166665,0 -10.5833328,0 -10.5833328,-10.58333 -10.5833328,-10.58333 z" />
<path
inkscape:connector-curvature="0"
d="m 100.54167,74.083347 v -26.45835 c 0,-10.58333 10.58333,-10.58333 10.58333,-10.58333 h 15.87499 c 10.58333,0 10.58333,10.58333 10.58333,10.58333 l 1e-5,26.45835 h -10.58334 v -5.29167 l -10.58332,-1e-5 v -5.29166 l 10.58332,1e-5 V 47.624997 H 111.125 v 26.45835 z m -31.750004,-37.04168 10e-6,15.875 h 10.58333 l -1e-5,-15.875 z m -15.87499,-5.29168 h 10.58333 v 26.45834 h 21.16667 v -26.45834 h 10.58333 v 26.45834 c 0,10.58334 -10.58333,10.58334 -10.58333,10.58334 h -21.16667 c -10.58333,0 -10.58333,-10.58334 -10.58333,-10.58334 z M 5.2916756,42.333337 c 0,-10.58335 10.5833324,-10.58335 10.5833324,-10.58335 h 31.749998 v 10.58335 H 15.875008 v 10.58333 h 21.166668 c 10.58333,0 10.58333,10.58333 10.58333,10.58333 v 10.58333 c 0,10.58334 -10.58333,10.58334 -10.58333,10.58334 H 5.2916756 V 74.083327 H 37.041676 V 63.499997 H 15.875008 c -10.5833324,0 -10.5833324,-10.58333 -10.5833324,-10.58333 z m 179.9166544,31.75 v -15.875 c 0,-10.58334 10.58334,-10.58334 10.58334,-10.58334 h 15.875 c 10.58333,0 10.58333,10.58334 10.58333,10.58334 v 15.875 c 0,10.58333 -10.58333,10.58333 -10.58333,10.58333 0,0 -5.29167,0 -15.875,0 -10.58334,0 -10.58334,-10.58333 -10.58334,-10.58333 z m 26.45834,0 v -15.875 h -15.875 v 15.875 z m 15.875,-42.33335 h 15.875 C 254,31.749987 254,42.333337 254,42.333337 v 31.74999 h 5.29167 l 10e-6,-52.91666 H 254 L 269.875,5.2916687 V 84.666667 H 254 c -10.58333,0 -10.58333,-10.58334 -10.58333,-10.58334 V 42.333337 H 238.125 v 42.33333 h -10.58333 z m -74.08334,37.04168 h 15.875 v -15.875 h -15.875 z m 1e-5,31.750003 h 5.29167 l -15.875,15.87501 -1e-5,-74.083343 h 26.45833 c 10.58334,0 10.58334,10.58333 10.58334,10.58333 v 15.875 c 0,10.58333 -10.58334,10.58333 -10.58334,10.58333 l -15.875,1e-5 z"
style="fill:none;fill-opacity:1;stroke:#000000;stroke-width:2;stroke-linecap:round;stroke-linejoin:round;stroke-miterlimit:4;stroke-dasharray:none;stroke-opacity:1;paint-order:stroke markers fill"
id="path850-5-4" />
<path
id="path848"
style="fill:none;stroke:#000000;stroke-width:1;stroke-linecap:round;stroke-linejoin:round;stroke-opacity:1;stroke-miterlimit:4;stroke-dasharray:none;paint-order:stroke markers fill"
d="m 58.208333,95.249999 h 5.291666 m 66.145831,2.645841 v 2.64584 M 127,95.25001 l 2.64583,2.64583 2.64583,-2.64583 m -13.22917,0 v 5.29167 h 5.29167 m 119.0625,-2.64583 h 5.29166 m 0,-2.64584 h -5.29166 v 5.29167 h 5.29166 m -10.58333,-5.29167 v 5.29167 m -2.64583,0 v -5.29167 h 5.29166 v 5.29167 m -7.9375,-2.64583 h -5.29167 m 0,2.64583 v -5.29167 h 5.29167 v 5.29167 m -7.9375,-5.29167 h -5.29167 v 5.29167 h 5.29167 v -2.64583 h -2.64583 m -15.875,0 h 5.29166 m 0,-2.64584 h -5.29166 v 5.29167 h 5.29166 m -13.22916,-5.29167 v 5.29167 h 5.29166 m -13.22916,-5.29167 h 5.29167 l -5.29167,5.29167 h 5.29167 m -13.22917,-5.29167 h 5.29167 l -5.29167,5.29167 h 5.29167 m -13.22917,-5.29167 v 5.29167 h 5.29167 v -5.29167 m -13.22917,0 v 5.29167 m 0,-5.29167 h 5.29167 v 2.64584 h -5.29167 m -50.27083,-10e-6 h -5.29167 m 5.29167,-2.64583 h -5.29167 v 5.29167 h 5.29167 m -13.22917,-5.29167 2.64584,5.29167 2.64583,-5.29167 m -13.22917,0 v 5.29167 h 5.29167 v -5.29167 z m -7.937497,0 v 5.29167 H 92.60415 M 74.083326,97.89584 h 5.291667 m 0,-2.64583 h -5.291667 v 5.29167 h 5.291667 M 66.145826,97.89584 h 5.291667 m 0,-2.64583 v 5.29167 m -5.291667,-5.29167 v 5.29167 m -5.291667,-5.29167 v 5.29167" />
</g>
</svg>
